<svg width="1440" height="307" viewBox="0 0 1440 307" fill="none" xmlns="http://www.w3.org/2000/svg">
<path d="M1580 74.9015L1549.13 81.0297C1518.37 87.6203 1456.28 99.1828 1395 148.902C1333.37 198.62 1271.28 284.183 1210 303.03C1148.37 321.183 1086.28 272.62 1025 247.53C963.372 222.902 901.281 222.902 840 247.53C778.372 272.62 716.281 321.183 655 290.773C593.372 259.902 531.281 148.902 470 130.402C408.372 111.902 346.281 185.902 285 204.402C223.372 222.902 161.281 185.902 100 173.53C38.3718 161.62 -23.7188 173.183 -53.7812 179.773L-85 185.902V0.90152H-54.1282C-23.3719 0.90152 38.7188 0.90152 100 0.90152C161.628 0.90152 223.719 0.90152 285 0.90152C346.628 0.90152 408.719 0.90152 470 0.90152C531.628 0.90152 593.719 0.90152 655 0.90152C716.628 0.90152 778.719 0.90152 840 0.90152C901.628 0.90152 963.719 0.90152 1025 0.90152C1086.63 0.90152 1148.72 0.90152 1210 0.90152C1271.63 0.90152 1333.72 0.90152 1395 0.90152C1456.63 0.90152 1518.72 0.90152 1548.78 0.90152H1580V74.9015Z" fill="#025883"/>
</svg>
